<svg xmlns="http://www.w3.org/2000/svg" viewBox="0 0 64 64" fill="none">
  <rect width="64" height="64" rx="14" fill="url(#bg)"/>
  <line x1="12" y1="32" x2="20" y2="32" stroke="#FF7500" stroke-width="1.5" stroke-linecap="round" opacity="0.5"/>
  <line x1="44" y1="32" x2="52" y2="32" stroke="#FF7500" stroke-width="1.5" stroke-linecap="round" opacity="0.5"/>
  <line x1="32" y1="12" x2="32" y2="20" stroke="#FF7500" stroke-width="1.5" stroke-linecap="round" opacity="0.5"/>
  <line x1="32" y1="44" x2="32" y2="52" stroke="#FF7500" stroke-width="1.5" stroke-linecap="round" opacity="0.5"/>
  <circle cx="32" cy="32" r="16" stroke="url(#ring)" stroke-width="2" fill="none" opacity="0.8"/>
  <circle cx="32" cy="26" r="3.5" fill="#FF7500"/>
  <circle cx="25" cy="35" r="3" fill="#FF3D6B"/>
  <circle cx="39" cy="35" r="3" fill="#00E5B0"/>
  <line x1="32" y1="29.5" x2="26.5" y2="33" stroke="#FF7500" stroke-width="1.5" opacity="0.7"/>
  <line x1="32" y1="29.5" x2="37.5" y2="33" stroke="#FF7500" stroke-width="1.5" opacity="0.7"/>
  <line x1="28" y1="35" x2="36" y2="35" stroke="#FF7500" stroke-width="1.5" opacity="0.7"/>
  <circle cx="14" cy="14" r="2" fill="#FF7500" opacity="0.4"/>
  <circle cx="50" cy="14" r="2" fill="#FF7500" opacity="0.4"/>
  <circle cx="14" cy="50" r="2" fill="#FF7500" opacity="0.4"/>
  <circle cx="50" cy="50" r="2" fill="#FF7500" opacity="0.4"/>
  <defs>
    <linearGradient id="bg" x1="0" y1="0" x2="64" y2="64" gradientUnits="userSpaceOnUse">
      <stop stop-color="#0D0D0D"/>
      <stop offset="1" stop-color="#1A0A00"/>
    </linearGradient>
    <linearGradient id="ring" x1="16" y1="16" x2="48" y2="48" gradientUnits="userSpaceOnUse">
      <stop stop-color="#FF7500"/>
      <stop offset="1" stop-color="#FF3D6B"/>
    </linearGradient>
  </defs>
</svg>
